# xmcd CD database file
#
# Track frame offsets:
#	150
#	17859
#	34602
#	51662
#	72793
#	91015
#	109096
#	121966
#	152970
#	173994
#	200376
#	216519
#	244057
#	259652
#
# Disc length: 3839 seconds
#
# Revision: 0
# Processed by: cddbd v1.5.1PL0 Copyright (c) Steve Scherf et al.
# Submitted via: CDex 1.51
#
DISCID=c60efd0e
DTITLE=三重人格の犬 - 怪物未来
DYEAR=1998
DGENRE=Psychedelic
TTITLE0=人造人間
TTITLE1=ドロブネ
TTITLE2=メタルボンド
TTITLE3=アレルギイ
TTITLE4=LOW RIDER
TTITLE5=太陽のかけら
TTITLE6=まくらどけい
TTITLE7=プールにて
TTITLE8=からっぽ
TTITLE9=奴隷天国
TTITLE10=ガラメ
TTITLE11=人間魚雷
TTITLE12=スペイムリィ
TTITLE13=三重人格の犬
EXTD=YEAR: 1998
EXTT0=
EXTT1=
EXTT2=
EXTT3=
EXTT4=
EXTT5=
EXTT6=
EXTT7=
EXTT8=
EXTT9=
EXTT10=
EXTT11=
EXTT12=
EXTT13=
PLAYORDER=
